<svg xmlns="http://www.w3.org/2000/svg" viewBox="0 0 32 32" width="32" height="32"><rect x="0" y="0" width="4" height="4" fill="rgb(255,100,30)"/><rect x="8" y="0" width="4" height="4" fill="rgb(140,20,20)"/><rect x="12" y="0" width="4" height="4" fill="rgb(255,200,50)"/><rect x="16" y="0" width="4" height="4" fill="rgb(255,200,50)"/><rect x="20" y="0" width="4" height="4" fill="rgb(140,20,20)"/><rect x="28" y="0" width="4" height="4" fill="rgb(255,100,30)"/><rect x="8" y="4" width="4" height="4" fill="rgb(200,40,40)"/><rect x="20" y="4" width="4" height="4" fill="rgb(200,40,40)"/><rect x="8" y="8" width="4" height="4" fill="rgb(255,200,50)"/><rect x="12" y="8" width="4" height="4" fill="rgb(140,20,20)"/><rect x="16" y="8" width="4" height="4" fill="rgb(140,20,20)"/><rect x="20" y="8" width="4" height="4" fill="rgb(255,200,50)"/><rect x="0" y="12" width="4" height="4" fill="rgb(255,200,50)"/><rect x="28" y="12" width="4" height="4" fill="rgb(255,200,50)"/><rect x="0" y="16" width="4" height="4" fill="rgb(255,100,30)"/><rect x="4" y="16" width="4" height="4" fill="rgb(255,200,50)"/><rect x="24" y="16" width="4" height="4" fill="rgb(255,200,50)"/><rect x="28" y="16" width="4" height="4" fill="rgb(255,100,30)"/><rect x="4" y="20" width="4" height="4" fill="rgb(200,40,40)"/><rect x="8" y="20" width="4" height="4" fill="rgb(255,200,50)"/><rect x="20" y="20" width="4" height="4" fill="rgb(255,200,50)"/><rect x="24" y="20" width="4" height="4" fill="rgb(200,40,40)"/><rect x="0" y="28" width="4" height="4" fill="rgb(140,20,20)"/><rect x="4" y="28" width="4" height="4" fill="rgb(140,20,20)"/><rect x="12" y="28" width="4" height="4" fill="rgb(200,40,40)"/><rect x="16" y="28" width="4" height="4" fill="rgb(200,40,40)"/><rect x="24" y="28" width="4" height="4" fill="rgb(140,20,20)"/><rect x="28" y="28" width="4" height="4" fill="rgb(140,20,20)"/></svg>